<svg xmlns="http://www.w3.org/2000/svg" width="137" height="23" fill="none"><g clip-path="url(#a)"><path fill="#0310B4" d="M0 11.575c0 6.22 5.152 11.368 11.442 11.368l.203-.002h.027q1.157-.024 2.247-.26c8.159-1.704 14.904-11.106 17.074-11.106-2.17 0-8.915-9.402-17.074-11.105a11.7 11.7 0 0 0-2.247-.26h-.027l-.203-.002C5.152.206 0 5.354 0 11.575M43.873 19.152a8 8 0 0 1-1.497-.174c-5.44-1.136-9.937-7.404-11.383-7.404 1.446 0 5.943-6.268 11.383-7.403a8 8 0 0 1 1.497-.173h.018l.135-.002c4.193 0 7.628 3.432 7.628 7.58 0 4.146-3.435 7.578-7.628 7.578l-.135-.001z"/><path fill="#fff" d="M85.017.194v2.413h-2.331V.194zm0 5.677V19.38h-2.331V5.872zM111.74.194v2.413h-2.332V.194zm0 5.677V19.38h-2.332V5.872zM116.042 5.871V4.11c0-4.37 3.715-4.504 6.345-3.754V2.5c-2.576-.67-4.013-.349-4.013 1.528v1.843h3.986v2.011h-3.986v11.497h-2.332V7.882h-2.44v-2.01zM99.793.194H97.46V19.38h10.033v-2.144h-7.701zM88.793 7.883h-1.898V5.872h1.898V2.608h2.332v3.264h3.986v2.01h-3.986v7.722c0 1.877 1.438 2.199 4.013 1.529v2.144c-2.63.751-6.345.617-6.345-3.753zM130.411 19.626c2.115 0 4.365-.804 6.047-3.405l-2.224-.938c-.813 1.367-2.087 2.198-3.823 2.198-2.766 0-4.311-1.823-4.311-4.96s1.546-4.88 4.311-4.88 4.013 1.77 4.013 4.88c0 .349.027.59 0 .616H137v-.616c0-4.397-2.494-7.078-6.588-7.078-3.851 0-6.888 2.681-6.888 7.078s2.712 7.105 6.888 7.105zm-4.393-8.634v2.145h10.711v-2.145zM72.559 9.626h8.161v.536c0 5.202-2.874 9.465-8.433 9.465s-8.704-3.915-8.704-9.867S66.783 0 72.288 0c4.094 0 6.318 2.145 7.565 4.88l-2.359 1.019c-1.03-2.413-2.955-3.754-5.206-3.754-3.824 0-6.128 2.869-6.128 7.614s2.304 7.722 6.128 7.722c2.982 0 5.341-2.226 5.857-5.711h-5.586z"/></g><defs><clipPath id="a"><path fill="#fff" d="M0 0h137v22.943H0z"/></clipPath></defs></svg>