<svg width="1229" height="202" viewBox="0 0 1229 202" fill="none" xmlns="http://www.w3.org/2000/svg">
<g clip-path="url(#clip0_106_255)">
<path d="M332.8 102.8C333.2 129.7 311 151.9 284.3 151.7H283.2C279.9 151.5 276.7 151.2 273.4 150.5C248.6 145 226.6 122.7 212.7 110.2C206.9 105.3 202.5 101.8 199.9 101.8C202.5 101.8 206.9 98.3 212.9 93.2C226.4 80.9 248.1 59.1 272.7 54C275.9 53.5 279 53.1 282.5 52.9H283.4C310.3 53 332.6 75.7 332.8 102.8Z" fill="#0310B4"/>
<path d="M199.8 101.7C196.6 101.7 192.4 104.5 186.8 109.1C152.3 137.4 119.8 174.7 74.3997 174.7C33.7997 174.3 0.399681 140.8 -0.000318587 100.1C-0.400319 59.6 32.6997 26.2 73.1997 26.6H74.7997C118.6 28.2 151.7 64.6 186.8 94.3C192.4 98.7 196.7 101.7 199.8 101.7Z" fill="#0310B4"/>
<path d="M528.7 100.9H582.1V104.4C582.1 138.8 563.3 167.1 526.9 167.1C491.4 167.1 469.9 141.2 469.9 101.8C469.9 64.3 490.8 37.2 526.9 37.2C553.7 37.2 568.3 51.4 576.4 69.5L561 76.2C554.3 60.2 541.7 51.3 526.9 51.3C501.9 51.3 486.8 70.3 486.8 101.7C486.8 133.7 501.9 152.8 526.9 152.8C546.4 152.8 561.9 138.1 565.2 115H528.6L528.7 100.9Z" fill="white"/>
<path d="M609.101 39.9V55.9H593.801V39.9H609.101ZM609.101 75.4V164.2H593.801V75.4H609.101Z" fill="white"/>
<path d="M631.501 137.9V88.7H619.101V75.4H631.501V56.2H646.801V75.4H672.901V88.7H646.801V138.4C646.801 150.8 656.201 153.5 673.101 149.9V164.1C655.801 168.2 631.501 166.8 631.501 137.9Z" fill="white"/>
<path d="M703.601 149.9H754.001V164.1H688.301V39.9H703.601V149.9Z" fill="white"/>
<path d="M778.5 39.9V55.9H763.2V39.9H778.5ZM778.5 75.4V164.2H763.2V75.4H778.5Z" fill="white"/>
<path d="M806.201 75.4V65.1C806.201 36.2 830.501 35.3 847.701 40.2V54.4C830.801 50 821.401 52.1 821.401 64.5V75.3H847.501V89.5H821.401V164.1H806.101V89.6H790.101V75.4H806.201Z" fill="white"/>
<path d="M850.5 119.9C850.5 90.8 870.4 73 895.6 73C922.4 73 938.7 90.8 938.7 119.9V124H867.5C868.7 142.3 878.7 152.8 895.5 152.8C906.9 152.8 915.2 147.3 920.5 138.2L935.1 144.4C924.1 161.6 909.4 166.9 895.5 166.9C868.3 167 850.5 149.2 850.5 119.9ZM921.2 109.8C918.7 95.6 910.9 87.6 895.6 87.6C880.7 87.6 871.3 95.6 868.3 109.8H921.2Z" fill="white"/>
<path d="M1001.3 111.3V164.1H986V53.8V39.6H1001.1H1036.7C1047.9 39.6 1056.3 42.8 1063 49C1069.9 55.2 1073.3 63.9 1073.3 75.1C1073.3 84.9 1070.3 93.2 1064.1 100.4C1058.2 107.7 1049.3 111.2 1036.9 111.2H1001.3V111.3ZM1001.3 97.1H1031C1038.5 97.1 1044.7 95.5 1049.3 92.3C1053.9 89.1 1056.4 83.4 1056.4 75.2C1056.4 66.1 1053 59.9 1046.3 56.7C1042.7 54.9 1037.6 53.9 1031 53.9H1001.3V97.1Z" fill="#E8E8E8"/>
<path d="M1128.1 75.2V89.4C1104.1 84.8 1095 94 1095 112.5V164.1H1079.7V75.2H1092.7V87.1C1100.5 75.5 1113.3 69.3 1128.1 75.2Z" fill="#E8E8E8"/>
<path d="M1174.3 165.6C1201.7 165.6 1219.5 147.8 1219.5 118.5C1219.5 89.3 1199.6 71.5 1174.3 71.5V86.1C1192.4 86.1 1202.6 97.8 1202.6 118.5C1202.6 139.3 1192.5 151.4 1174.3 151.4V165.6ZM1174.3 165.6V151.4C1156.2 151.4 1146 139.3 1146 118.5C1146 97.9 1156.1 86.1 1174.3 86.1V71.5C1149 71.5 1129.1 89.3 1129.1 118.5C1129.1 147.8 1146.9 165.6 1174.3 165.6Z" fill="#E8E8E8"/>
</g>
<defs>
<clipPath id="clip0_106_255">
<rect width="1228.4" height="201.4" fill="white"/>
</clipPath>
</defs>
</svg>
