<?xml version="1.0" encoding="utf-8"?>
<!-- Generator: Adobe Illustrator 27.5.0, SVG Export Plug-In . SVG Version: 6.00 Build 0)  -->
<svg version="1.1" id="Слой_2" xmlns="http://www.w3.org/2000/svg" xmlns:xlink="http://www.w3.org/1999/xlink" x="0px" y="0px"
	 viewBox="0 0 1920 1080" style="enable-background:new 0 0 1920 1080;" xml:space="preserve">
<style type="text/css">
	.st0{fill:#0310B4;}
	.st1{fill:#706F92;}
	.st2{fill:#FFFFFF;}
	.st3{fill:#E8E8E8;}
</style>
<path class="st0" d="M733.9,542.1c0.4,26.9-21.8,49.1-48.5,48.9h-1.1c-3.3-0.2-6.5-0.5-9.8-1.2c-24.8-5.5-46.8-27.8-60.7-40.3
	c-5.8-4.9-10.2-8.4-12.8-8.4c2.6,0,7-3.5,13-8.6c13.5-12.3,35.2-34.1,59.8-39.2c3.2-0.5,6.3-0.9,9.8-1.1h0.9
	C711.4,492.3,733.8,515,733.9,542.1z"/>
<path class="st0" d="M601,541.1c-3.2,0-7.4,2.8-13,7.4c-34.5,28.3-67,65.6-112.4,65.6c-40.6-0.4-74-33.9-74.4-74.6
	c-0.4-40.5,32.7-73.9,73.2-73.5h1.6c43.8,1.6,76.9,38,112,67.7C593.6,538.1,597.8,541.1,601,541.1z"/>
<g>
	<path class="st2" d="M929.9,540.3h53.4v3.5c0,34.4-18.8,62.7-55.2,62.7c-35.5,0-57-25.9-57-65.3c0-37.5,20.9-64.6,57-64.6
		c26.8,0,41.4,14.2,49.5,32.3l-15.4,6.7c-6.7-16-19.3-24.9-34.1-24.9c-25,0-40.1,19-40.1,50.4c0,32,15.1,51.1,40.1,51.1
		c19.5,0,35-14.7,38.3-37.8h-36.6V540.3z"/>
	<path class="st2" d="M1010.3,479.2v16H995v-16H1010.3z M1010.3,514.7v88.8H995v-88.8H1010.3z"/>
	<path class="st2" d="M1032.6,577.2V528h-12.4v-13.3h12.4v-19.2h15.3v19.2h26.1V528h-26.1v49.7c0,12.4,9.4,15.1,26.3,11.5v14.2
		C1057,607.5,1032.6,606.1,1032.6,577.2z"/>
	<path class="st2" d="M1104.7,589.3h50.4v14.2h-65.7V479.2h15.3V589.3z"/>
	<path class="st2" d="M1179.6,479.2v16h-15.3v-16H1179.6z M1179.6,514.7v88.8h-15.3v-88.8H1179.6z"/>
	<path class="st2" d="M1207.3,514.7v-10.3c0-28.9,24.3-29.8,41.5-24.9v14.2c-16.9-4.4-26.3-2.3-26.3,10.1v10.8h26.1v14.2h-26.1v74.6
		h-15.3v-74.6h-16v-14.2H1207.3z"/>
	<path class="st2" d="M1251.7,559.3c0-29.1,19.9-46.9,45.1-46.9c26.8,0,43.1,17.8,43.1,46.9v4.1h-71.2c1.2,18.3,11.2,28.8,28,28.8
		c11.4,0,19.7-5.5,25-14.6l14.6,6.2c-11,17.2-25.7,22.5-39.6,22.5C1269.4,606.3,1251.7,588.6,1251.7,559.3z M1322.3,549.1
		c-2.5-14.2-10.3-22.2-25.6-22.2c-14.9,0-24.3,8-27.3,22.2H1322.3z"/>
</g>
<g>
	<path class="st3" d="M1402.4,550.6v52.8h-15.3V493.2v-14.2h15.1h35.6c11.2,0,19.6,3.2,26.3,9.4c6.9,6.2,10.3,14.9,10.3,26.1
		c0,9.8-3,18.1-9.2,25.3c-5.9,7.3-14.8,10.8-27.2,10.8H1402.4z M1402.4,536.4h29.7c7.5,0,13.7-1.6,18.3-4.8
		c4.6-3.2,7.1-8.9,7.1-17.1c0-9.1-3.4-15.3-10.1-18.5c-3.6-1.8-8.7-2.8-15.3-2.8h-29.7V536.4z"/>
	<path class="st3" d="M1529.2,514.5v14.2c-24-4.6-33.1,4.6-33.1,23.1v51.6h-15.3v-88.9h13v11.9
		C1501.7,514.9,1514.5,508.6,1529.2,514.5z"/>
	<path class="st3" d="M1575.4,604.9c27.4,0,45.2-17.8,45.2-47.1c0-29.2-19.9-47-45.2-47v14.6c18.1,0,28.3,11.7,28.3,32.4
		c0,20.8-10.1,32.9-28.3,32.9V604.9z M1604.2,547.6v14.2V547.6z M1575.4,604.9v-14.2c-18.1,0-28.3-12.1-28.3-32.9
		c0-20.6,10.1-32.4,28.3-32.4v-14.6c-25.3,0-45.2,17.8-45.2,47C1530.2,587.1,1548,604.9,1575.4,604.9z M1546.6,547.6v14.2V547.6z"/>
</g>
</svg>
